<svg width="17" height="16" viewBox="0 0 17 16" fill="none" xmlns="http://www.w3.org/2000/svg">
<g clip-path="url(#clip0)">
<path d="M14.2586 2.66666H2.25863C1.52225 2.66666 0.925293 3.26362 0.925293 4V12C0.925293 12.7364 1.52225 13.3333 2.25863 13.3333H14.2586C14.995 13.3333 15.592 12.7364 15.592 12V4C15.592 3.26362 14.995 2.66666 14.2586 2.66666Z" stroke="#2E3434" stroke-linecap="round"/>
<path d="M8.92562 10.6667V10.2222C8.92562 9.98647 8.78515 9.7604 8.53509 9.59367C8.28502 9.427 7.94589 9.33334 7.59229 9.33334H4.92562C4.572 9.33334 4.23286 9.427 3.98281 9.59367C3.73276 9.7604 3.59229 9.98647 3.59229 10.2222V10.6667" stroke="#2E3434" stroke-linecap="round" stroke-linejoin="round"/>
<path d="M6.25863 8C6.99503 8 7.59196 7.40307 7.59196 6.66667C7.59196 5.93029 6.99503 5.33334 6.25863 5.33334C5.52225 5.33334 4.92529 5.93029 4.92529 6.66667C4.92529 7.40307 5.52225 8 6.25863 8Z" stroke="#2E3434" stroke-linecap="round" stroke-linejoin="round"/>
</g>
<defs>
<clipPath id="clip0">
<rect width="16" height="16" fill="white" transform="translate(0.258789)"/>
</clipPath>
</defs>
</svg>
