<svg width="14" height="16" viewBox="0 0 14 16" fill="none" xmlns="http://www.w3.org/2000/svg">
<path d="M11.9745 4.06497C11.9602 4.15981 11.944 4.25709 11.9257 4.35682C11.2973 7.72394 9.14755 8.88748 6.40196 8.88748H5.00399C4.66822 8.88748 4.3853 9.14189 4.33295 9.48763L3.61722 14.2255L3.41453 15.5685C3.40648 15.6217 3.40956 15.6763 3.42356 15.7281C3.43759 15.7802 3.46223 15.8282 3.49579 15.8691C3.52935 15.9101 3.57103 15.9433 3.61795 15.9657C3.66484 15.9885 3.7159 16 3.76759 16H6.24701C6.54064 16 6.79005 15.7774 6.83627 15.4751L6.86067 15.3439L7.32748 12.2515L7.35744 12.0817C7.40318 11.7787 7.6531 11.5558 7.9467 11.5558H8.31753C10.7198 11.5558 12.6003 10.5378 13.1499 7.59201C13.3795 6.36127 13.2606 5.33385 12.6531 4.61123C12.4605 4.38762 12.2306 4.2025 11.9745 4.06497Z" fill="#179BD7"/>
<path d="M11.3103 3.7915C11.1097 3.73096 10.9056 3.68337 10.6992 3.64978C10.2915 3.58434 9.87939 3.55284 9.46689 3.55599H5.73223C5.59012 3.55599 5.45263 3.60883 5.34464 3.70542C5.23668 3.80165 5.16533 3.93533 5.14349 4.08195L4.34902 9.33419L4.32617 9.48746C4.35091 9.32019 4.43217 9.16762 4.55524 9.05774C4.67835 8.94751 4.83509 8.88697 4.99718 8.88732H6.39515C9.14074 8.88732 11.2905 7.72342 11.9189 4.35665C11.9377 4.25692 11.9534 4.15999 11.9677 4.06481C11.8018 3.97417 11.629 3.89823 11.451 3.83734C11.4044 3.82125 11.3575 3.80585 11.3103 3.7915Z" fill="#222D65"/>
<path d="M5.14976 4.08204C5.17138 3.93542 5.2427 3.80174 5.35073 3.70551C5.45875 3.60892 5.59635 3.55608 5.7385 3.55678H9.47315C9.91558 3.55678 10.3286 3.58688 10.7055 3.65057C10.9605 3.69221 11.2121 3.75485 11.4578 3.83778C11.6432 3.90182 11.8154 3.97776 11.9744 4.06525C12.1614 2.82086 11.9729 1.97331 11.3283 1.20624C10.6176 0.361487 9.33496 0 7.69371 0H2.92887C2.59363 0 2.30762 0.254404 2.25579 0.600844L0.271149 13.7313C0.26191 13.7925 0.265409 13.8548 0.281437 13.9139C0.297499 13.9734 0.325669 14.0287 0.364058 14.0756C0.402411 14.1225 0.450072 14.1603 0.503753 14.1862C0.557434 14.2121 0.615838 14.2254 0.674978 14.2257H3.61667L4.35529 9.33428L5.14976 4.08204Z" fill="#253B80"/>
</svg>
