<svg width="16" height="16" viewBox="0 0 16 16" fill="none" xmlns="http://www.w3.org/2000/svg">
<path d="M8 0C3.57143 0 0 3.57143 0 8C0 12.4286 3.57143 16 8 16C12.4286 16 16 12.4286 16 8C16 3.57143 12.4286 0 8 0ZM14.1714 5.02857C13.6571 4.94286 13 4.88571 12.0857 4.85714C11.6286 3.45714 10.9429 2.31429 10.2286 1.51429C11.9714 2.11429 13.4 3.4 14.1714 5.02857ZM11.4286 8C11.4286 8.74286 11.3714 9.4 11.2571 10C11.1143 10 10.9714 10 10.8571 10H5.14286C5 10 4.88571 10 4.74286 10C4.62857 9.4 4.57143 8.74286 4.57143 8C4.57143 7.28571 4.65714 6.6 4.77143 6C4.88571 6 5.02857 6 5.14286 6H10.8571C10.9714 6 11.0857 6 11.2286 6C11.3429 6.6 11.4286 7.28571 11.4286 8ZM8 1.14286C8.48571 1.28571 10.0571 2.54286 10.8857 4.85714H10.8571H5.14286H5.11429C5.94286 2.54286 7.51429 1.31429 8 1.14286ZM5.77143 1.51429C5.05714 2.34286 4.34286 3.45714 3.91429 4.85714C3 4.88571 2.34286 4.94286 1.82857 5.02857C2.6 3.4 4.02857 2.11429 5.77143 1.51429ZM1.14286 8C1.14286 7.4 1.22857 6.82857 1.34286 6.28571C1.68571 6.17143 2.57143 6.08571 3.6 6.02857C3.48571 6.65714 3.42857 7.31429 3.42857 8C3.42857 8.68571 3.48571 9.34286 3.57143 9.97143C2.57143 9.91429 1.68571 9.82857 1.34286 9.71429C1.22857 9.17143 1.14286 8.6 1.14286 8ZM1.82857 10.9714C2.31429 11.0571 2.97143 11.1143 3.82857 11.1429C4.2 12.4857 4.77143 13.5714 5.4 14.3714C3.82857 13.6857 2.54286 12.4857 1.82857 10.9714ZM8 14.8571C7.54286 14.8571 5.82857 13.8286 5 11.1429C5.05714 11.1429 5.08571 11.1429 5.14286 11.1429H10.8571C10.9143 11.1429 10.9429 11.1429 11 11.1429C10.1714 13.8286 8.45714 14.8571 8 14.8571ZM10.6 14.3429C11.2286 13.5429 11.8286 12.4857 12.1714 11.1143C13.0286 11.0857 13.6857 11.0286 14.1714 10.9429C13.4571 12.4857 12.1714 13.6857 10.6 14.3429ZM12.4286 9.97143C12.5143 9.37143 12.5714 8.71429 12.5714 8C12.5714 7.31429 12.5143 6.65714 12.4 6.02857C13.4 6.08571 14.3143 6.17143 14.6571 6.28571C14.8 6.82857 14.8571 7.4 14.8571 8C14.8571 8.6 14.7714 9.17143 14.6571 9.71429C14.3143 9.82857 13.4286 9.91429 12.4286 9.97143Z" fill="black"/>
</svg>
