<svg xmlns="http://www.w3.org/2000/svg" xml:space="preserve" width="400" height="400" viewBox="0 0 400 400"><defs><clipPath clipPathUnits="userSpaceOnUse" id="a"><path d="M0 0h340.158v340.158H0Z"/></clipPath><clipPath clipPathUnits="userSpaceOnUse" id="b"><path d="M0 340.158h340.158V0H0Z"/></clipPath></defs><path style="fill:#fff;stroke:#4b4b4b;stroke-width:0" transform="matrix(1.33333 0 0 -1.33333 -1080.435 651.637) scale(1 -1)" d="M810.326-488.728h300v300h-300z"/><g clip-path="url(#a)" transform="matrix(1.33333 0 0 -1.33333 -1080.435 651.637) translate(817.556 195.958) scale(.83943)"><g clip-path="url(#b)"><path d="M0 0c0-11.062-8.967-20.028-20.028-20.028-6.586 0-12.43 3.178-16.08 8.085h-166.518a130.218 130.218 0 0 1-1.571-20.206c0-71.566 58.222-129.789 129.788-129.789 52.409 0 97.662 31.225 118.134 76.047h-153.308c-3.623-5.163-9.62-8.538-16.405-8.538-11.064 0-20.027 8.967-20.027 20.03 0 11.061 8.963 20.028 20.027 20.028 6.383 0 12.069-2.986 15.737-7.639v.006H51.914a129.681 129.681 0 0 1 3.465 29.855c0 71.566-58.223 129.79-129.788 129.79-56.093 0-103.99-35.769-122.077-85.698h-.001 160.38c3.65 4.905 9.493 8.083 16.079 8.083C-8.967 20.026 0 11.06 0 0m-74.409-185.824c-84.737 0-153.675 68.938-153.675 153.675 0 84.737 68.938 153.676 153.675 153.676 84.736 0 153.675-68.939 153.675-153.676S10.327-185.824-74.409-185.824" style="fill:#100f0d;fill-opacity:1;fill-rule:nonzero;stroke:none" transform="translate(244.488 202.227)"/></g></g></svg>
