<svg width="500" height="500" viewBox="0 0 500 500" fill="none" xmlns="http://www.w3.org/2000/svg"><rect width="500" height="500" rx="250" fill="url(#rlusd_logo-1_svg__paint0_linear_1480_22485)"/><path d="M304.37 77.3201C280.39 91.4101 266.19 116.85 266.19 143.68C266.19 157.77 271.85 171.97 278.93 184.63C284.59 195.95 287.36 215.69 267.61 225.58C253.52 234.01 235.08 228.39 226.65 214.26C218.22 202.94 208.33 191.63 195.58 183.2C171.6 169.11 143.31 169.11 119.32 183.2C95.3399 197.29 81.1699 222.8 81.1699 249.63C81.1699 276.47 95.2599 301.9 119.31 316.03C143.29 330.12 171.58 330.12 195.57 316.03C208.31 308.95 218.2 297.71 225.21 284.97C230.87 275.08 246.42 262.34 266.17 273.65C280.26 282.08 284.49 300.52 277.49 314.6C270.41 327.34 266.17 341.47 266.17 355.55C266.17 382.42 280.26 407.82 304.35 421.91C328.33 436 356.62 436 380.61 421.91C404.59 407.82 418.8 382.38 418.8 355.55C418.8 328.72 404.67 303.28 380.62 289.15C367.88 282.07 353.75 279.26 338.24 279.26C325.5 279.26 308.6 270.83 308.6 249.62C308.6 232.65 321.34 219.98 338.24 219.98C352.33 219.98 367.88 217.17 380.62 210.09C404.6 196 418.8 170.56 418.8 143.73C418.8 116.9 404.67 91.4601 380.62 77.3701C369.3 70.2901 355.21 67.4801 342.48 67.4801C329.82 67.4301 315.62 70.3101 304.37 77.3201Z" fill="white"/><defs><linearGradient id="rlusd_logo-1_svg__paint0_linear_1480_22485" x1="500" y1="250" x2="0" y2="250" gradientUnits="userSpaceOnUse"><stop stop-color="#2C68F6"/><stop offset="1" stop-color="#2C68F6"/></linearGradient></defs></svg>